<?xml version="1.0" standalone="no"?>
<!DOCTYPE svg PUBLIC "-//W3C//DTD SVG 20010904//EN"
 "http://www.w3.org/TR/2001/REC-SVG-20010904/DTD/svg10.dtd">
<svg version="1.0" xmlns="http://www.w3.org/2000/svg"
 width="2752.000000pt" height="2564.000000pt" viewBox="0 0 2752.000000 2564.000000"
 preserveAspectRatio="xMidYMid meet">

<g transform="translate(0.000000,2564.000000) scale(0.100000,-0.100000)"
fill="#000000" stroke="none">
<path d="M8342 23941 c-65 -22 -133 -85 -169 -155 -36 -70 -66 -201 -102 -436
-17 -113 -37 -232 -43 -265 -17 -87 -17 -1301 0 -1490 42 -462 103 -866 202
-1340 32 -152 135 -582 170 -708 220 -796 597 -1741 958 -2398 71 -129 291
-506 341 -584 12 -18 6 -30 -54 -110 -400 -534 -631 -1084 -740 -1760 -14 -85
-25 -169 -25 -187 0 -71 -2 -71 -232 47 -1213 621 -3959 1989 -4066 2025 -266
89 -523 -31 -605 -284 -30 -93 -33 -288 -27 -2313 l5 -1828 23 -46 c34 -69
108 -118 451 -294 168 -87 342 -177 386 -200 44 -24 181 -95 305 -160 124 -65
277 -145 340 -178 63 -33 250 -129 415 -214 165 -85 345 -179 400 -208 106
-56 846 -439 1175 -608 208 -107 370 -196 370 -203 0 -3 -88 -147 -197 -322
-269 -434 -374 -605 -599 -972 -105 -173 -243 -394 -305 -490 -143 -223 -174
-287 -173 -361 1 -111 69 -181 239 -247 137 -53 748 -288 1205 -464 129 -49
259 -97 288 -106 28 -9 52 -22 52 -29 0 -7 -79 -329 -175 -715 -249 -996 -261
-1061 -252 -1401 8 -345 68 -622 204 -947 184 -440 524 -873 909 -1156 48 -36
93 -68 101 -73 11 -6 -22 -45 -136 -160 l-152 -153 -237 -9 c-454 -19 -1308
-60 -1441 -69 -88 -6 -150 -6 -179 1 -24 5 -52 7 -61 5 -49 -15 -352 -47 -521
-56 -255 -13 -548 -39 -583 -52 -43 -17 -50 -39 -36 -119 l12 -69 81 0 c45 0
164 7 266 15 403 32 1172 77 1995 115 231 11 472 22 536 26 l116 7 6 -74 c15
-182 129 -289 372 -351 81 -20 113 -23 310 -22 179 0 244 4 350 22 146 25 420
91 630 152 77 22 196 57 265 77 l125 37 1080 6 c594 4 1922 5 2950 4 l1870 -3
100 -25 c55 -14 168 -45 250 -70 568 -169 811 -214 1110 -203 241 9 391 53
498 148 75 65 100 117 105 216 l5 85 66 -6 c77 -7 338 -22 531 -31 336 -16
1040 -57 1190 -70 354 -30 447 -37 490 -33 l45 3 23 70 c12 38 20 75 17 82
-11 30 -68 51 -153 58 -48 3 -139 13 -202 22 -63 8 -160 14 -215 13 -55 0
-224 8 -375 19 -244 18 -827 49 -1256 66 -221 9 -211 5 -339 138 -60 63 -120
117 -132 121 -33 11 -29 21 24 57 298 202 598 498 777 768 314 473 459 904
482 1434 12 261 -20 475 -136 927 -96 376 -405 1612 -569 2280 -402 1637 -474
1934 -531 2177 -33 145 -60 273 -60 286 0 13 9 32 21 43 33 30 129 179 207
320 237 432 353 866 355 1334 2 255 -12 349 -108 750 -89 369 -122 612 -160
1185 -32 478 -72 720 -175 1055 -112 364 -277 699 -526 1071 l-112 167 70 68
c73 73 348 389 484 559 575 716 1190 1694 1610 2560 352 726 630 1440 804
2058 34 120 69 237 79 260 10 23 21 67 25 97 4 30 22 136 41 235 89 476 124
780 105 914 -12 85 -35 133 -87 182 -65 63 -117 83 -208 83 -75 1 -85 -2 -175
-46 -52 -26 -131 -71 -175 -99 -44 -29 -210 -139 -370 -244 -159 -105 -306
-200 -325 -212 -19 -12 -55 -41 -80 -63 -25 -23 -121 -101 -215 -173 -325
-250 -437 -344 -828 -691 -534 -474 -1047 -1013 -1481 -1556 -360 -451 -505
-653 -884 -1234 -160 -247 -336 -559 -523 -928 -77 -153 -144 -278 -148 -278
-4 0 -70 20 -147 45 -555 181 -1024 261 -1604 272 -411 8 -732 -15 -1090 -78
-218 -38 -644 -149 -845 -220 -48 -16 -88 -29 -90 -27 -1 2 -24 71 -49 153
-360 1162 -762 2103 -1339 3135 -96 172 -265 443 -485 775 -292 443 -503 732
-845 1160 -49 60 -102 130 -118 155 -30 45 -199 228 -379 411 -78 79 -105 100
-153 117 -71 27 -144 28 -215 3z m1531 -2188 c30 -49 107 -173 171 -277 574
-922 1142 -2209 1501 -3401 31 -104 70 -218 86 -251 16 -34 29 -65 29 -68 0
-3 -24 -17 -53 -30 -30 -13 -57 -32 -61 -42 -4 -11 -10 -61 -13 -113 l-6 -94
24 6 c13 3 119 46 234 97 452 198 930 325 1475 391 251 30 759 38 1007 14 592
-55 1008 -161 1556 -396 114 -50 221 -92 237 -96 25 -5 30 -2 36 22 7 28 -1
129 -12 160 -4 9 -31 28 -61 41 -29 13 -53 28 -53 33 0 15 323 658 412 821
197 358 515 850 816 1265 92 125 337 442 431 555 331 398 646 743 985 1078
259 256 306 298 306 274 0 -4 32 -66 71 -137 202 -369 328 -771 395 -1255 44
-321 19 -1120 -42 -1320 -22 -76 -44 -116 -184 -346 -399 -653 -904 -1319
-1401 -1845 -70 -75 -167 -180 -214 -234 l-85 -98 33 -23 c47 -32 187 -192
262 -299 206 -295 371 -628 468 -945 106 -342 149 -612 182 -1145 34 -545 61
-737 166 -1180 72 -303 82 -368 82 -540 -1 -149 -34 -460 -52 -478 -5 -5 -14
22 -21 60 -28 149 -72 257 -158 386 -165 247 -503 394 -824 358 -204 -24 -341
-80 -536 -221 -221 -160 -367 -360 -453 -623 -89 -272 -71 -565 51 -812 27
-55 72 -130 99 -166 66 -86 203 -215 274 -258 157 -93 426 -142 617 -111 119
20 150 22 149 14 0 -11 -208 -187 -428 -363 -145 -116 -371 -286 -506 -379
-33 -23 -71 -50 -85 -62 l-25 -20 45 13 c134 40 466 170 580 227 221 112 474
282 616 414 l91 85 41 -152 c23 -84 50 -195 62 -247 59 -269 814 -3316 1020
-4120 153 -594 154 -601 154 -875 0 -177 -4 -252 -18 -325 -109 -588 -381
-1064 -824 -1443 -155 -133 -269 -209 -452 -301 -423 -214 -873 -347 -1495
-444 l-170 -26 -2515 -4 c-1761 -2 -2554 0 -2645 8 -536 45 -1133 206 -1590
430 -272 134 -417 230 -589 392 -427 400 -682 906 -747 1478 -16 141 -6 393
20 545 12 66 62 282 112 480 50 198 134 533 186 745 84 337 99 388 123 412 36
36 45 71 80 304 42 279 47 300 235 1074 86 353 295 1273 355 1565 22 110 45
217 51 237 5 21 20 99 33 174 l22 136 90 -79 c274 -241 545 -410 880 -547 139
-57 442 -166 461 -166 3 0 -59 43 -138 97 -199 133 -339 238 -557 418 -103 84
-223 182 -266 217 -80 64 -125 113 -114 124 4 3 49 -4 100 -16 219 -53 455
-33 626 51 91 45 216 134 268 190 117 125 217 308 260 476 31 116 43 318 25
429 -38 249 -161 497 -325 659 -86 86 -317 248 -415 292 -83 37 -234 73 -337
80 -158 10 -399 -45 -532 -123 -167 -98 -345 -361 -408 -603 -16 -61 -32 -111
-36 -111 -7 0 -28 88 -50 210 -17 97 -17 435 0 555 7 50 33 190 57 313 74 371
87 486 110 927 30 584 71 878 174 1241 136 478 422 1004 712 1306 l78 82 -73
101 c-400 552 -774 1281 -1096 2140 -135 360 -136 369 -100 831 49 636 166
1087 402 1558 71 142 246 424 320 517 112 140 153 189 160 189 3 0 31 -39 61
-87z m-5337 -5537 c210 -90 4143 -2065 4267 -2143 l39 -24 -6 -67 c-3 -37 -8
-107 -11 -157 -24 -363 -48 -541 -115 -835 -79 -344 -84 -385 -84 -640 0 -244
9 -336 55 -564 73 -357 191 -655 392 -988 55 -91 77 -136 77 -160 0 -18 -12
-82 -26 -143 -38 -166 -67 -306 -144 -700 -39 -198 -80 -396 -92 -440 -29
-113 -83 -222 -255 -520 -149 -257 -253 -446 -253 -458 0 -6 115 -43 213 -67
26 -7 47 -17 47 -22 0 -11 -11 -60 -96 -408 -30 -123 -60 -255 -66 -293 -9
-56 -14 -67 -27 -62 -78 30 -868 308 -981 345 -244 79 -412 142 -417 156 -2 7
8 32 25 56 60 88 252 404 695 1143 251 418 483 801 515 850 33 50 58 93 56 97
-11 18 -229 131 -579 302 -432 210 -1383 694 -2127 1082 -265 139 -531 277
-963 499 -171 89 -326 171 -343 184 l-33 23 3 1986 c2 1150 7 1995 12 2006 15
30 94 17 222 -38z m5727 -3790 c154 -46 265 -114 383 -238 156 -163 247 -359
279 -599 8 -64 -11 -220 -40 -314 -50 -165 -200 -363 -336 -443 -314 -184
-738 -80 -980 241 -292 388 -284 889 21 1198 84 86 150 128 244 159 115 37
294 36 429 -4z m7607 18 c260 -61 428 -252 491 -558 29 -139 23 -321 -15 -451
-52 -176 -135 -321 -260 -453 -158 -166 -328 -243 -546 -245 -130 -1 -203 17
-329 80 -74 37 -109 63 -172 126 -69 68 -87 94 -134 190 -71 149 -89 223 -89
367 1 253 106 498 294 687 148 149 307 235 490 266 61 10 210 5 270 -9z
m-8208 -9788 c35 -13 125 -49 201 -80 191 -77 562 -190 694 -211 24 -4 45 -10
48 -14 4 -8 -121 -47 -410 -128 -166 -47 -487 -111 -625 -124 -202 -20 -357 2
-423 61 -31 28 -32 28 -15 62 24 50 107 140 268 290 80 74 151 142 159 151 18
22 28 21 103 -7z m8551 -163 c164 -170 232 -256 243 -311 5 -25 2 -30 -33 -45
-64 -28 -122 -37 -255 -37 -214 0 -416 35 -798 139 -118 33 -252 69 -297 81
-46 12 -81 26 -78 30 3 4 26 11 52 15 199 28 710 184 913 278 30 14 62 25 70
24 9 -1 91 -79 183 -174z"/>
<path d="M11081 14345 c-417 -91 -716 -395 -806 -820 -65 -304 43 -662 265
-886 144 -145 301 -241 450 -276 118 -28 369 -25 475 5 116 33 290 122 371
190 135 113 257 295 318 473 169 497 -82 1084 -539 1260 -167 65 -382 86 -534
54z m570 -261 c123 -36 226 -133 260 -246 32 -105 24 -222 -21 -314 -44 -90
-128 -174 -207 -205 -48 -20 -76 -24 -158 -24 -87 1 -108 4 -157 27 -123 57
-206 172 -228 317 -27 169 62 345 211 421 77 40 210 50 300 24z"/>
<path d="M16296 14344 c-204 -40 -366 -125 -497 -261 -211 -218 -311 -533
-269 -850 49 -362 283 -688 590 -820 169 -72 413 -96 580 -55 127 30 183 56
305 136 182 120 268 212 349 373 203 405 134 869 -178 1191 -142 148 -339 255
-535 292 -74 14 -262 11 -345 -6z m72 -278 c155 -79 239 -226 230 -401 -8
-151 -90 -274 -226 -338 -61 -29 -76 -32 -167 -32 -93 0 -105 2 -166 32 -133
65 -215 188 -226 339 -13 168 68 316 213 389 76 38 106 44 204 41 70 -2 95 -7
138 -30z"/>
<path d="M13731 12492 c-36 -9 -66 -22 -68 -27 -2 -6 39 -52 90 -103 69 -67
101 -92 120 -92 46 0 224 153 214 184 -16 49 -230 71 -356 38z"/>
<path d="M12724 12130 c-57 -29 -74 -69 -74 -178 0 -120 22 -211 74 -317 123
-247 321 -366 585 -352 164 8 340 91 510 240 74 65 66 66 176 -23 139 -112
220 -157 342 -192 110 -30 262 -30 353 1 193 67 313 183 391 377 61 151 75
315 35 392 -24 46 -77 68 -127 53 -47 -14 -55 -36 -69 -189 -12 -131 -36 -202
-89 -270 -130 -164 -312 -209 -497 -123 -33 16 -121 69 -195 119 -169 113
-194 126 -249 126 -58 -1 -126 -34 -260 -130 -123 -88 -244 -150 -317 -164
-94 -17 -206 17 -281 84 -89 80 -134 186 -152 348 -15 144 -25 175 -63 198
-40 25 -43 25 -93 0z"/>
<path d="M12940 9041 c0 -5 19 -25 43 -44 303 -241 850 -335 1291 -221 188 49
436 157 503 220 20 19 34 37 31 40 -3 3 -35 -2 -70 -10 -96 -22 -287 -53 -418
-67 -157 -17 -697 -18 -875 -1 -150 15 -367 53 -436 77 -48 17 -69 19 -69 6z"/>
<path d="M11759 8371 c-61 -60 -56 -80 65 -283 158 -266 342 -664 468 -1013
102 -286 195 -632 267 -997 50 -254 74 -334 108 -362 66 -55 113 -99 113 -108
0 -5 -21 -19 -47 -31 -71 -33 -120 -65 -128 -85 -4 -9 -11 -62 -14 -117 -7
-112 0 -105 -92 -91 -43 7 -49 5 -82 -23 -19 -18 -53 -65 -74 -106 -21 -41
-42 -75 -47 -75 -6 0 -36 20 -67 45 -49 38 -64 45 -103 45 -67 0 -95 -15 -162
-86 l-62 -66 21 81 c27 110 26 111 -170 206 -299 144 -502 282 -747 504 -510
463 -874 1031 -1118 1741 -64 187 -109 285 -141 301 -32 18 -83 1 -117 -38
-31 -35 -32 -39 -28 -103 10 -135 202 -652 364 -980 219 -444 410 -703 790
-1071 258 -249 546 -439 857 -565 218 -89 249 -105 242 -128 -33 -101 13 -176
109 -176 37 0 55 13 163 112 28 26 61 48 73 48 13 0 32 -16 53 -47 17 -27 49
-65 70 -87 32 -34 41 -38 69 -32 18 3 47 20 64 37 28 27 123 202 154 284 l11
28 72 -7 c40 -4 89 -9 110 -13 35 -5 37 -4 37 23 1 51 19 219 26 238 4 9 37
32 75 51 108 55 143 121 100 190 -10 17 -60 77 -110 134 -51 57 -97 115 -102
129 -6 14 -17 78 -25 142 -37 281 -154 735 -281 1085 -126 348 -216 556 -363
836 -154 292 -253 428 -335 459 -24 9 -31 6 -66 -29z"/>
<path d="M15853 8379 c-73 -47 -200 -248 -368 -584 -230 -458 -444 -1082 -539
-1571 -20 -106 -56 -351 -56 -386 0 -5 -34 -45 -75 -89 -139 -149 -170 -215
-125 -272 12 -14 53 -49 93 -76 l72 -50 -4 -116 c-4 -142 -1 -147 70 -129 29
8 57 10 64 6 19 -11 56 -59 112 -147 28 -44 71 -113 97 -152 62 -99 72 -98
186 13 48 48 94 90 101 95 28 18 47 7 94 -51 58 -73 140 -119 183 -104 46 16
72 68 72 144 0 51 4 70 18 82 17 16 81 42 227 93 44 16 134 56 200 90 286 146
528 327 800 600 180 180 227 236 380 449 263 369 441 741 599 1257 42 135 76
255 76 268 0 35 -18 59 -60 81 -99 51 -122 24 -219 -262 -79 -233 -122 -339
-199 -493 -93 -188 -180 -337 -309 -532 -204 -311 -413 -546 -698 -789 -274
-233 -410 -318 -715 -450 -157 -67 -169 -78 -170 -149 0 -59 -10 -85 -31 -85
-10 0 -49 20 -86 45 -98 66 -108 65 -190 -21 -60 -63 -83 -73 -83 -35 0 11
-11 59 -25 107 -39 135 -72 151 -191 89 -37 -19 -69 -34 -70 -32 -2 2 5 30 15
63 11 32 22 85 26 117 7 51 10 58 26 53 11 -3 29 -8 42 -11 25 -6 34 -11 -130
66 -56 27 -104 53 -108 60 -4 6 18 36 53 73 33 33 68 79 77 101 9 22 43 175
76 340 78 397 134 604 249 925 152 424 334 826 489 1084 112 185 122 222 73
269 -39 37 -79 43 -119 16z"/>
<path d="M18084 7460 c-22 -88 -28 -130 -22 -143 5 -10 11 -17 14 -15 10 10
45 214 42 247 -2 28 -10 10 -34 -89z"/>
<path d="M18024 22821 c-65 -40 -82 -106 -44 -168 57 -94 178 -89 231 11 22
43 23 47 9 88 -28 79 -124 113 -196 69z"/>
<path d="M16886 21745 c-49 -17 -102 -69 -117 -113 -43 -130 113 -267 234
-206 42 21 76 52 94 87 63 121 -80 279 -211 232z"/>
<path d="M6800 18140 c-124 -21 -224 -74 -303 -160 -191 -206 -195 -520 -10
-720 115 -124 238 -180 397 -180 164 0 268 41 376 150 139 140 189 319 145
509 -63 264 -339 447 -605 401z m217 -241 c119 -57 187 -169 187 -309 0 -59
-4 -84 -22 -118 -35 -66 -98 -128 -161 -159 -48 -24 -68 -28 -141 -28 -76 0
-92 4 -145 32 -75 39 -106 72 -142 148 -24 52 -28 72 -28 150 1 70 5 100 22
136 52 116 201 197 333 181 19 -2 63 -17 97 -33z"/>
<path d="M20720 17843 c-40 -21 -80 -75 -80 -110 0 -37 35 -96 68 -115 55 -33
116 -17 166 42 29 35 33 77 12 118 -37 71 -104 97 -166 65z"/>
<path d="M6546 16829 c-14 -11 -33 -34 -41 -49 -43 -84 22 -180 121 -180 28 0
44 8 69 33 60 60 59 134 -1 186 -43 39 -106 43 -148 10z"/>
<path d="M2454 15830 c-34 -13 -74 -69 -74 -101 0 -43 23 -92 55 -117 57 -45
149 -16 189 59 25 46 16 81 -33 131 -32 31 -45 38 -77 37 -22 0 -48 -4 -60 -9z"/>
<path d="M22972 14517 c-67 -25 -122 -100 -122 -167 0 -108 119 -195 222 -161
75 25 138 128 124 203 -9 50 -58 103 -113 122 -54 18 -66 19 -111 3z"/>
<path d="M2345 13400 c-32 -21 -65 -73 -65 -103 0 -55 72 -127 126 -127 122 0
175 147 83 225 -38 31 -100 34 -144 5z"/>
<path d="M24774 11701 c-52 -32 -77 -71 -71 -113 6 -48 33 -83 82 -107 50 -25
86 -18 130 23 60 57 59 115 -4 178 -45 44 -86 50 -137 19z"/>
<path d="M2954 10299 c-31 -39 -93 -103 -136 -143 l-78 -73 103 -91 c56 -51
120 -115 141 -142 21 -28 42 -49 46 -48 4 2 34 35 67 73 32 39 94 104 137 146
l79 76 -60 46 c-62 48 -213 202 -213 218 0 26 -34 1 -86 -62z"/>
<path d="M20696 10039 c-63 -15 -155 -70 -192 -114 -43 -53 -81 -137 -94 -208
-8 -42 -7 -71 4 -126 67 -319 428 -447 658 -233 126 118 163 265 107 429 -21
62 -66 130 -110 167 -94 80 -248 114 -373 85z m171 -204 c82 -24 143 -108 143
-195 0 -14 -9 -43 -19 -66 -72 -158 -285 -164 -357 -11 -31 67 -31 129 -1 184
49 91 127 120 234 88z"/>
<path d="M21362 9123 c-36 -7 -99 -76 -112 -123 -27 -99 61 -209 167 -210 46
0 76 14 116 55 125 128 12 313 -171 278z"/>
<path d="M4717 8880 c-131 -33 -229 -129 -277 -269 -97 -288 191 -593 488
-517 186 47 293 172 317 371 19 149 -84 313 -243 388 -57 27 -80 32 -157 34
-49 1 -107 -2 -128 -7z m208 -209 c97 -45 141 -147 105 -243 -34 -91 -85 -134
-173 -144 -107 -13 -190 43 -221 147 -31 104 15 212 104 248 42 17 141 12 185
-8z"/>
<path d="M5480 8626 c-26 -15 -61 -58 -73 -89 -13 -34 27 -104 72 -126 48 -25
70 -26 116 -7 40 17 75 68 75 111 0 90 -110 154 -190 111z"/>
<path d="M4511 6823 c-78 -39 -117 -139 -83 -215 43 -96 142 -134 231 -88 68
34 108 107 98 180 -14 105 -147 172 -246 123z"/>
<path d="M23143 6780 c-59 -35 -77 -100 -47 -162 22 -47 61 -73 110 -73 57 0
90 21 115 72 28 57 19 105 -26 150 -27 27 -41 33 -76 33 -26 0 -57 -8 -76 -20z"/>
<path d="M21164 6730 c-56 -22 -82 -116 -49 -179 15 -30 69 -61 105 -61 93 0
160 112 114 190 -31 52 -108 75 -170 50z"/>
<path d="M5386 2250 c-34 -11 -73 -32 -92 -51 l-33 -32 36 -69 c26 -49 43 -70
60 -74 61 -16 241 16 288 49 23 18 39 124 21 146 -39 50 -174 65 -280 31z"/>
<path d="M22208 2016 c-44 -52 -112 -87 -218 -111 -150 -34 -145 -32 -163 -70
-44 -93 -1 -161 103 -159 73 2 195 36 299 85 145 68 187 114 170 187 -11 49
-64 99 -114 107 -38 6 -42 4 -77 -39z"/>
<path d="M21190 1794 c-307 -33 -1075 -102 -1330 -119 -370 -24 -1334 -81
-1520 -90 -69 -3 -197 -10 -285 -15 -470 -28 -1249 -56 -2315 -82 -624 -16
-3315 -15 -3930 0 -1257 32 -1598 44 -2370 82 -217 11 -494 25 -615 30 -121 6
-240 12 -265 15 -25 3 -171 12 -325 20 -154 8 -305 17 -335 20 -30 3 -158 12
-285 20 -126 8 -320 22 -430 30 -110 8 -223 15 -252 15 -51 0 -51 0 -73 -45
-33 -69 -32 -104 7 -130 42 -29 93 -34 853 -85 168 -11 397 -27 510 -35 113
-9 297 -20 410 -25 113 -6 259 -14 325 -20 66 -5 248 -14 405 -20 157 -6 346
-15 420 -20 74 -5 230 -12 345 -15 116 -3 356 -12 535 -20 179 -8 604 -19 945
-25 341 -6 816 -15 1055 -20 554 -12 1576 -12 2105 0 226 5 687 14 1025 20
338 6 728 15 865 20 138 6 412 17 610 25 198 8 392 17 430 20 39 3 194 10 345
15 151 6 343 15 425 20 83 6 292 19 465 30 1036 65 1889 135 2442 200 106 13
182 42 174 67 -3 10 -10 38 -16 63 -21 85 -16 80 -78 79 -31 -1 -154 -12 -272
-25z"/>
<path d="M6287 1773 c-32 -4 -41 -10 -52 -36 -7 -18 -15 -54 -18 -80 -5 -47
-4 -48 33 -67 51 -26 203 -53 275 -48 73 4 120 33 130 79 19 88 -69 141 -255
152 -41 3 -92 3 -113 0z"/>
</g>
</svg>
